<mxfile host="app.diagrams.net" agent="Mozilla/5.0 (Windows NT 10.0; Win64; x64) AppleWebKit/537.36 (KHTML, like Gecko) Chrome/141.0.0.0 Safari/537.36" version="28.2.7">
  <diagram name="Page-1" id="nx4rTB5tgivmD2z65OOD">
    <mxGraphModel dx="2916" dy="2203" grid="1" gridSize="10" guides="1" tooltips="1" connect="1" arrows="1" fold="1" page="1" pageScale="1" pageWidth="850" pageHeight="1100" math="0" shadow="0">
      <root>
        <mxCell id="0" />
        <mxCell id="1" parent="0" />
        <mxCell id="3nKiiO2P07QAHy0K8kRl-97" value="&lt;font style=&quot;font-size: 20px;&quot;&gt;&lt;b&gt;Persistance&lt;/b&gt;&lt;/font&gt;" style="rounded=1;whiteSpace=wrap;html=1;fillColor=#fff2cc;strokeColor=#d6b656;opacity=80;strokeWidth=3;align=right;" parent="1" vertex="1">
          <mxGeometry x="-820" y="445" width="1470" height="285" as="geometry" />
        </mxCell>
        <mxCell id="3nKiiO2P07QAHy0K8kRl-99" value="&lt;font style=&quot;font-size: 20px;&quot;&gt;Presentation&lt;/font&gt;" style="rounded=1;whiteSpace=wrap;html=1;fillColor=#dae8fc;strokeColor=#6c8ebf;opacity=80;align=right;strokeWidth=3;fontStyle=1" parent="1" vertex="1">
          <mxGeometry x="-820" width="1470" height="150" as="geometry" />
        </mxCell>
        <mxCell id="3nKiiO2P07QAHy0K8kRl-98" value="&lt;font style=&quot;font-size: 20px;&quot;&gt;&lt;b&gt;Business&lt;/b&gt;&lt;/font&gt;" style="rounded=1;whiteSpace=wrap;html=1;fillColor=#f8cecc;strokeColor=#b85450;opacity=80;align=right;shadow=0;glass=0;strokeWidth=3;" parent="1" vertex="1">
          <mxGeometry x="-820" y="160" width="1470" height="280" as="geometry" />
        </mxCell>
        <mxCell id="3nKiiO2P07QAHy0K8kRl-14" value="&lt;ul dir=&quot;auto&quot; style=&quot;box-sizing: border-box; padding-left: 2em; margin-top: 0px; margin-bottom: 0px; color: rgb(31, 35, 40); font-family: -apple-system, BlinkMacSystemFont, &amp;quot;Segoe UI&amp;quot;, &amp;quot;Noto Sans&amp;quot;, Helvetica, Arial, sans-serif, &amp;quot;Apple Color Emoji&amp;quot;, &amp;quot;Segoe UI Emoji&amp;quot;; font-size: 16px; text-align: start; background-color: rgb(255, 255, 255);&quot;&gt;&lt;li style=&quot;box-sizing: border-box;&quot;&gt;&lt;em style=&quot;box-sizing: border-box;&quot;&gt;Sis messenger&lt;/em&gt;&lt;/li&gt;&lt;/ul&gt;" style="rounded=1;whiteSpace=wrap;html=1;fontStyle=1" parent="1" vertex="1">
          <mxGeometry x="-780" y="20" width="220" height="60" as="geometry" />
        </mxCell>
        <mxCell id="3nKiiO2P07QAHy0K8kRl-16" value="&lt;ul dir=&quot;auto&quot; style=&quot;box-sizing: border-box; padding-left: 2em; margin-top: 0px; margin-bottom: 0px; color: rgb(31, 35, 40); font-family: -apple-system, BlinkMacSystemFont, &amp;quot;Segoe UI&amp;quot;, &amp;quot;Noto Sans&amp;quot;, Helvetica, Arial, sans-serif, &amp;quot;Apple Color Emoji&amp;quot;, &amp;quot;Segoe UI Emoji&amp;quot;; font-size: 16px; font-style: normal; font-variant-ligatures: normal; font-variant-caps: normal; letter-spacing: normal; orphans: 2; text-align: start; text-indent: 0px; text-transform: none; widows: 2; word-spacing: 0px; -webkit-text-stroke-width: 0px; white-space: normal; background-color: rgb(255, 255, 255); text-decoration-thickness: initial; text-decoration-style: initial; text-decoration-color: initial;&quot;&gt;&lt;li style=&quot;box-sizing: border-box; margin-top: 0.25em;&quot;&gt;&lt;em style=&quot;background-color: light-dark(rgb(255, 255, 255), rgb(18, 18, 18)); color: light-dark(rgb(31, 35, 40), rgb(205, 208, 212)); box-sizing: border-box;&quot;&gt;Dashboard presenter&lt;/em&gt;&lt;/li&gt;&lt;/ul&gt;&lt;div&gt;&lt;br&gt;&lt;/div&gt;" style="rounded=1;whiteSpace=wrap;html=1;fontStyle=1" parent="1" vertex="1">
          <mxGeometry x="-410" y="20" width="120" height="60" as="geometry" />
        </mxCell>
        <mxCell id="3nKiiO2P07QAHy0K8kRl-55" style="edgeStyle=orthogonalEdgeStyle;rounded=0;orthogonalLoop=1;jettySize=auto;html=1;entryX=1;entryY=0.5;entryDx=0;entryDy=0;" parent="1" source="3nKiiO2P07QAHy0K8kRl-17" target="3nKiiO2P07QAHy0K8kRl-21" edge="1">
          <mxGeometry relative="1" as="geometry" />
        </mxCell>
        <mxCell id="3nKiiO2P07QAHy0K8kRl-62" value="Checks cancellation&lt;div&gt;&lt;br&gt;&lt;/div&gt;" style="edgeLabel;html=1;align=center;verticalAlign=middle;resizable=0;points=[];" parent="3nKiiO2P07QAHy0K8kRl-55" vertex="1" connectable="0">
          <mxGeometry x="-0.6836" y="2" relative="1" as="geometry">
            <mxPoint as="offset" />
          </mxGeometry>
        </mxCell>
        <mxCell id="3nKiiO2P07QAHy0K8kRl-57" style="edgeStyle=orthogonalEdgeStyle;rounded=0;orthogonalLoop=1;jettySize=auto;html=1;" parent="1" source="3nKiiO2P07QAHy0K8kRl-17" target="3nKiiO2P07QAHy0K8kRl-22" edge="1">
          <mxGeometry relative="1" as="geometry" />
        </mxCell>
        <mxCell id="3nKiiO2P07QAHy0K8kRl-60" value="Checks the waitlist&lt;div&gt;&lt;br&gt;&lt;/div&gt;" style="edgeLabel;html=1;align=center;verticalAlign=middle;resizable=0;points=[];" parent="3nKiiO2P07QAHy0K8kRl-57" vertex="1" connectable="0">
          <mxGeometry x="0.6472" y="1" relative="1" as="geometry">
            <mxPoint as="offset" />
          </mxGeometry>
        </mxCell>
        <mxCell id="3nKiiO2P07QAHy0K8kRl-17" value="&lt;ul dir=&quot;auto&quot; style=&quot;box-sizing: border-box; padding-left: 2em; margin-top: 0px; margin-bottom: 0px; color: rgb(31, 35, 40); font-family: -apple-system, BlinkMacSystemFont, &amp;quot;Segoe UI&amp;quot;, &amp;quot;Noto Sans&amp;quot;, Helvetica, Arial, sans-serif, &amp;quot;Apple Color Emoji&amp;quot;, &amp;quot;Segoe UI Emoji&amp;quot;; font-size: 16px; text-align: start; background-color: rgb(255, 255, 255);&quot;&gt;&lt;li style=&quot;box-sizing: border-box; margin-top: 0.25em;&quot;&gt;&lt;em style=&quot;box-sizing: border-box;&quot;&gt;Courses enrolment presenter&lt;/em&gt;&lt;/li&gt;&lt;/ul&gt;" style="rounded=1;whiteSpace=wrap;html=1;fontStyle=1" parent="1" vertex="1">
          <mxGeometry x="-150" y="80" width="200" height="60" as="geometry" />
        </mxCell>
        <mxCell id="3nKiiO2P07QAHy0K8kRl-75" style="edgeStyle=orthogonalEdgeStyle;rounded=0;orthogonalLoop=1;jettySize=auto;html=1;entryX=1;entryY=0.5;entryDx=0;entryDy=0;" parent="1" source="3nKiiO2P07QAHy0K8kRl-18" target="3nKiiO2P07QAHy0K8kRl-28" edge="1">
          <mxGeometry relative="1" as="geometry">
            <Array as="points">
              <mxPoint x="240" y="570" />
            </Array>
          </mxGeometry>
        </mxCell>
        <mxCell id="3nKiiO2P07QAHy0K8kRl-76" value="Fetches data to present" style="edgeLabel;html=1;align=center;verticalAlign=middle;resizable=0;points=[];" parent="3nKiiO2P07QAHy0K8kRl-75" vertex="1" connectable="0">
          <mxGeometry x="0.3004" y="1" relative="1" as="geometry">
            <mxPoint as="offset" />
          </mxGeometry>
        </mxCell>
        <mxCell id="3nKiiO2P07QAHy0K8kRl-18" value="Student information presenter" style="rounded=1;whiteSpace=wrap;html=1;fontStyle=1" parent="1" vertex="1">
          <mxGeometry x="150" y="50" width="150" height="60" as="geometry" />
        </mxCell>
        <mxCell id="3nKiiO2P07QAHy0K8kRl-19" value="Enrolment Condition presenter" style="rounded=1;whiteSpace=wrap;html=1;fontStyle=1" parent="1" vertex="1">
          <mxGeometry x="340" y="90" width="140" height="60" as="geometry" />
        </mxCell>
        <mxCell id="3nKiiO2P07QAHy0K8kRl-20" value="Conditions manager" style="rounded=1;whiteSpace=wrap;html=1;fontStyle=1" parent="1" vertex="1">
          <mxGeometry x="-140" y="240" width="120" height="60" as="geometry" />
        </mxCell>
        <mxCell id="3nKiiO2P07QAHy0K8kRl-39" style="edgeStyle=orthogonalEdgeStyle;rounded=0;orthogonalLoop=1;jettySize=auto;html=1;entryX=0;entryY=0.5;entryDx=0;entryDy=0;" parent="1" source="3nKiiO2P07QAHy0K8kRl-22" target="3nKiiO2P07QAHy0K8kRl-24" edge="1">
          <mxGeometry relative="1" as="geometry" />
        </mxCell>
        <mxCell id="3nKiiO2P07QAHy0K8kRl-48" value="Triggers enrollment if capacity allows&lt;div&gt;&lt;br&gt;&lt;/div&gt;" style="edgeLabel;html=1;align=center;verticalAlign=middle;resizable=0;points=[];" parent="3nKiiO2P07QAHy0K8kRl-39" vertex="1" connectable="0">
          <mxGeometry x="-0.3941" y="-2" relative="1" as="geometry">
            <mxPoint as="offset" />
          </mxGeometry>
        </mxCell>
        <mxCell id="3nKiiO2P07QAHy0K8kRl-104" style="edgeStyle=orthogonalEdgeStyle;rounded=0;orthogonalLoop=1;jettySize=auto;html=1;exitX=1;exitY=0.75;exitDx=0;exitDy=0;endArrow=none;endFill=0;" parent="1" source="3nKiiO2P07QAHy0K8kRl-22" edge="1">
          <mxGeometry relative="1" as="geometry">
            <mxPoint x="-370" y="420" as="targetPoint" />
          </mxGeometry>
        </mxCell>
        <mxCell id="3nKiiO2P07QAHy0K8kRl-22" value="Waitlist manager" style="rounded=1;whiteSpace=wrap;html=1;fontStyle=1" parent="1" vertex="1">
          <mxGeometry x="-780" y="370" width="120" height="60" as="geometry" />
        </mxCell>
        <mxCell id="3nKiiO2P07QAHy0K8kRl-45" style="edgeStyle=orthogonalEdgeStyle;rounded=0;orthogonalLoop=1;jettySize=auto;html=1;" parent="1" source="3nKiiO2P07QAHy0K8kRl-24" target="3nKiiO2P07QAHy0K8kRl-20" edge="1">
          <mxGeometry relative="1" as="geometry" />
        </mxCell>
        <mxCell id="3nKiiO2P07QAHy0K8kRl-46" value="Checks if conditions are met&lt;div&gt;&lt;br&gt;&lt;/div&gt;" style="edgeLabel;html=1;align=center;verticalAlign=middle;resizable=0;points=[];" parent="3nKiiO2P07QAHy0K8kRl-45" vertex="1" connectable="0">
          <mxGeometry x="-0.2317" y="1" relative="1" as="geometry">
            <mxPoint as="offset" />
          </mxGeometry>
        </mxCell>
        <mxCell id="3nKiiO2P07QAHy0K8kRl-69" style="edgeStyle=orthogonalEdgeStyle;rounded=0;orthogonalLoop=1;jettySize=auto;html=1;exitX=0.25;exitY=0;exitDx=0;exitDy=0;entryX=0.5;entryY=1;entryDx=0;entryDy=0;" parent="1" source="3nKiiO2P07QAHy0K8kRl-24" target="3nKiiO2P07QAHy0K8kRl-25" edge="1">
          <mxGeometry relative="1" as="geometry" />
        </mxCell>
        <mxCell id="3nKiiO2P07QAHy0K8kRl-70" value="Triggers enrollment/unenrollment message" style="edgeLabel;html=1;align=center;verticalAlign=middle;resizable=0;points=[];" parent="3nKiiO2P07QAHy0K8kRl-69" vertex="1" connectable="0">
          <mxGeometry x="0.3718" y="3" relative="1" as="geometry">
            <mxPoint as="offset" />
          </mxGeometry>
        </mxCell>
        <mxCell id="3nKiiO2P07QAHy0K8kRl-93" style="edgeStyle=orthogonalEdgeStyle;rounded=0;orthogonalLoop=1;jettySize=auto;html=1;exitX=0.25;exitY=1;exitDx=0;exitDy=0;" parent="1" source="3nKiiO2P07QAHy0K8kRl-24" target="3nKiiO2P07QAHy0K8kRl-28" edge="1">
          <mxGeometry relative="1" as="geometry" />
        </mxCell>
        <mxCell id="3nKiiO2P07QAHy0K8kRl-94" style="edgeStyle=orthogonalEdgeStyle;rounded=0;orthogonalLoop=1;jettySize=auto;html=1;exitX=0.25;exitY=1;exitDx=0;exitDy=0;" parent="1" source="3nKiiO2P07QAHy0K8kRl-24" target="3nKiiO2P07QAHy0K8kRl-30" edge="1">
          <mxGeometry relative="1" as="geometry">
            <Array as="points">
              <mxPoint x="-410" y="450" />
              <mxPoint x="330" y="450" />
            </Array>
          </mxGeometry>
        </mxCell>
        <mxCell id="3nKiiO2P07QAHy0K8kRl-24" value="Enrollment manager" style="rounded=1;whiteSpace=wrap;html=1;" parent="1" vertex="1">
          <mxGeometry x="-440" y="300" width="120" height="60" as="geometry" />
        </mxCell>
        <mxCell id="3nKiiO2P07QAHy0K8kRl-25" value="Notification Service" style="rounded=1;whiteSpace=wrap;html=1;fontStyle=1" parent="1" vertex="1">
          <mxGeometry x="-630" y="160" width="230" height="60" as="geometry" />
        </mxCell>
        <mxCell id="3nKiiO2P07QAHy0K8kRl-85" style="edgeStyle=orthogonalEdgeStyle;rounded=0;orthogonalLoop=1;jettySize=auto;html=1;entryX=0;entryY=0.75;entryDx=0;entryDy=0;" parent="1" source="3nKiiO2P07QAHy0K8kRl-26" target="3nKiiO2P07QAHy0K8kRl-77" edge="1">
          <mxGeometry relative="1" as="geometry">
            <Array as="points">
              <mxPoint x="-570" y="650" />
              <mxPoint x="-270" y="650" />
              <mxPoint x="-270" y="705" />
            </Array>
          </mxGeometry>
        </mxCell>
        <mxCell id="3nKiiO2P07QAHy0K8kRl-86" value="Fetch login and authentication data" style="edgeLabel;html=1;align=center;verticalAlign=middle;resizable=0;points=[];" parent="3nKiiO2P07QAHy0K8kRl-85" vertex="1" connectable="0">
          <mxGeometry x="-0.1676" y="1" relative="1" as="geometry">
            <mxPoint as="offset" />
          </mxGeometry>
        </mxCell>
        <mxCell id="3nKiiO2P07QAHy0K8kRl-26" value="Authenticator" style="rounded=1;whiteSpace=wrap;html=1;fontStyle=1" parent="1" vertex="1">
          <mxGeometry x="-610" y="540" width="120" height="60" as="geometry" />
        </mxCell>
        <mxCell id="3nKiiO2P07QAHy0K8kRl-82" style="edgeStyle=orthogonalEdgeStyle;rounded=0;orthogonalLoop=1;jettySize=auto;html=1;entryX=0;entryY=0.25;entryDx=0;entryDy=0;" parent="1" source="3nKiiO2P07QAHy0K8kRl-27" target="3nKiiO2P07QAHy0K8kRl-29" edge="1">
          <mxGeometry relative="1" as="geometry">
            <Array as="points">
              <mxPoint x="-410" y="510" />
              <mxPoint x="-205" y="510" />
              <mxPoint x="-205" y="505" />
            </Array>
          </mxGeometry>
        </mxCell>
        <mxCell id="3nKiiO2P07QAHy0K8kRl-87" value="Fetch data" style="edgeLabel;html=1;align=center;verticalAlign=middle;resizable=0;points=[];" parent="3nKiiO2P07QAHy0K8kRl-82" vertex="1" connectable="0">
          <mxGeometry x="-0.0828" y="3" relative="1" as="geometry">
            <mxPoint as="offset" />
          </mxGeometry>
        </mxCell>
        <mxCell id="3nKiiO2P07QAHy0K8kRl-27" value="Course information manager" style="rounded=1;whiteSpace=wrap;html=1;fontStyle=1" parent="1" vertex="1">
          <mxGeometry x="-450" y="550" width="120" height="60" as="geometry" />
        </mxCell>
        <mxCell id="3nKiiO2P07QAHy0K8kRl-28" value="Student information manager" style="rounded=1;whiteSpace=wrap;html=1;fontStyle=1" parent="1" vertex="1">
          <mxGeometry x="-290" y="540" width="120" height="60" as="geometry" />
        </mxCell>
        <mxCell id="3nKiiO2P07QAHy0K8kRl-78" style="edgeStyle=orthogonalEdgeStyle;rounded=0;orthogonalLoop=1;jettySize=auto;html=1;" parent="1" source="3nKiiO2P07QAHy0K8kRl-29" target="3nKiiO2P07QAHy0K8kRl-77" edge="1">
          <mxGeometry relative="1" as="geometry" />
        </mxCell>
        <mxCell id="3nKiiO2P07QAHy0K8kRl-79" value="Fetches data" style="edgeLabel;html=1;align=center;verticalAlign=middle;resizable=0;points=[];" parent="3nKiiO2P07QAHy0K8kRl-78" vertex="1" connectable="0">
          <mxGeometry x="-0.1828" y="2" relative="1" as="geometry">
            <mxPoint as="offset" />
          </mxGeometry>
        </mxCell>
        <mxCell id="3nKiiO2P07QAHy0K8kRl-29" value="Cache" style="rounded=1;whiteSpace=wrap;html=1;fontStyle=1" parent="1" vertex="1">
          <mxGeometry x="-60" y="490" width="120" height="60" as="geometry" />
        </mxCell>
        <mxCell id="3nKiiO2P07QAHy0K8kRl-83" style="edgeStyle=orthogonalEdgeStyle;rounded=0;orthogonalLoop=1;jettySize=auto;html=1;" parent="1" source="3nKiiO2P07QAHy0K8kRl-30" target="3nKiiO2P07QAHy0K8kRl-29" edge="1">
          <mxGeometry relative="1" as="geometry" />
        </mxCell>
        <mxCell id="3nKiiO2P07QAHy0K8kRl-88" value="Fetches data" style="edgeLabel;html=1;align=center;verticalAlign=middle;resizable=0;points=[];" parent="3nKiiO2P07QAHy0K8kRl-83" vertex="1" connectable="0">
          <mxGeometry x="0.2147" y="-2" relative="1" as="geometry">
            <mxPoint as="offset" />
          </mxGeometry>
        </mxCell>
        <mxCell id="3nKiiO2P07QAHy0K8kRl-30" value="Ticket manager" style="rounded=1;whiteSpace=wrap;html=1;fontStyle=1" parent="1" vertex="1">
          <mxGeometry x="270" y="500" width="120" height="60" as="geometry" />
        </mxCell>
        <mxCell id="3nKiiO2P07QAHy0K8kRl-38" style="edgeStyle=orthogonalEdgeStyle;rounded=0;orthogonalLoop=1;jettySize=auto;html=1;entryX=0.5;entryY=1;entryDx=0;entryDy=0;" parent="1" source="3nKiiO2P07QAHy0K8kRl-21" target="3nKiiO2P07QAHy0K8kRl-24" edge="1">
          <mxGeometry relative="1" as="geometry" />
        </mxCell>
        <mxCell id="3nKiiO2P07QAHy0K8kRl-47" value="Triggers cancelation of enrollment&lt;div&gt;&lt;br&gt;&lt;/div&gt;" style="edgeLabel;html=1;align=center;verticalAlign=middle;resizable=0;points=[];" parent="3nKiiO2P07QAHy0K8kRl-38" vertex="1" connectable="0">
          <mxGeometry x="-0.1393" relative="1" as="geometry">
            <mxPoint as="offset" />
          </mxGeometry>
        </mxCell>
        <mxCell id="3nKiiO2P07QAHy0K8kRl-103" style="edgeStyle=orthogonalEdgeStyle;rounded=0;orthogonalLoop=1;jettySize=auto;html=1;exitX=0.25;exitY=1;exitDx=0;exitDy=0;endArrow=none;endFill=0;" parent="1" source="3nKiiO2P07QAHy0K8kRl-21" edge="1">
          <mxGeometry relative="1" as="geometry">
            <mxPoint x="-410" y="440" as="targetPoint" />
          </mxGeometry>
        </mxCell>
        <mxCell id="3nKiiO2P07QAHy0K8kRl-21" value="Cancellation manager" style="rounded=1;whiteSpace=wrap;html=1;fontStyle=1" parent="1" vertex="1">
          <mxGeometry x="-150" y="360" width="170" height="60" as="geometry" />
        </mxCell>
        <mxCell id="3nKiiO2P07QAHy0K8kRl-56" style="edgeStyle=orthogonalEdgeStyle;rounded=0;orthogonalLoop=1;jettySize=auto;html=1;entryX=0.996;entryY=0.664;entryDx=0;entryDy=0;entryPerimeter=0;" parent="1" source="3nKiiO2P07QAHy0K8kRl-19" target="3nKiiO2P07QAHy0K8kRl-20" edge="1">
          <mxGeometry relative="1" as="geometry" />
        </mxCell>
        <mxCell id="3nKiiO2P07QAHy0K8kRl-89" value="Fetch conditions data" style="edgeLabel;html=1;align=center;verticalAlign=middle;resizable=0;points=[];" parent="3nKiiO2P07QAHy0K8kRl-56" vertex="1" connectable="0">
          <mxGeometry x="-0.0704" y="-3" relative="1" as="geometry">
            <mxPoint as="offset" />
          </mxGeometry>
        </mxCell>
        <mxCell id="3nKiiO2P07QAHy0K8kRl-58" style="edgeStyle=orthogonalEdgeStyle;rounded=0;orthogonalLoop=1;jettySize=auto;html=1;entryX=0.697;entryY=0.032;entryDx=0;entryDy=0;entryPerimeter=0;" parent="1" source="3nKiiO2P07QAHy0K8kRl-17" target="3nKiiO2P07QAHy0K8kRl-24" edge="1">
          <mxGeometry relative="1" as="geometry" />
        </mxCell>
        <mxCell id="3nKiiO2P07QAHy0K8kRl-61" value="Checks enrollment&lt;div&gt;&lt;br&gt;&lt;/div&gt;" style="edgeLabel;html=1;align=center;verticalAlign=middle;resizable=0;points=[];" parent="3nKiiO2P07QAHy0K8kRl-58" vertex="1" connectable="0">
          <mxGeometry x="0.6639" y="1" relative="1" as="geometry">
            <mxPoint as="offset" />
          </mxGeometry>
        </mxCell>
        <mxCell id="3nKiiO2P07QAHy0K8kRl-71" style="edgeStyle=orthogonalEdgeStyle;rounded=0;orthogonalLoop=1;jettySize=auto;html=1;entryX=0.527;entryY=1.043;entryDx=0;entryDy=0;entryPerimeter=0;" parent="1" source="3nKiiO2P07QAHy0K8kRl-25" target="3nKiiO2P07QAHy0K8kRl-14" edge="1">
          <mxGeometry relative="1" as="geometry" />
        </mxCell>
        <mxCell id="3nKiiO2P07QAHy0K8kRl-72" value="Sends messages" style="edgeLabel;html=1;align=center;verticalAlign=middle;resizable=0;points=[];" parent="3nKiiO2P07QAHy0K8kRl-71" vertex="1" connectable="0">
          <mxGeometry x="-0.0687" relative="1" as="geometry">
            <mxPoint as="offset" />
          </mxGeometry>
        </mxCell>
        <mxCell id="3nKiiO2P07QAHy0K8kRl-77" value="Database" style="rounded=1;whiteSpace=wrap;html=1;fontStyle=1" parent="1" vertex="1">
          <mxGeometry x="-30" y="660" width="120" height="60" as="geometry" />
        </mxCell>
        <mxCell id="3nKiiO2P07QAHy0K8kRl-91" style="edgeStyle=orthogonalEdgeStyle;rounded=0;orthogonalLoop=1;jettySize=auto;html=1;exitX=0.25;exitY=1;exitDx=0;exitDy=0;entryX=0.583;entryY=0;entryDx=0;entryDy=0;entryPerimeter=0;" parent="1" source="3nKiiO2P07QAHy0K8kRl-24" target="3nKiiO2P07QAHy0K8kRl-27" edge="1">
          <mxGeometry relative="1" as="geometry" />
        </mxCell>
        <mxCell id="3nKiiO2P07QAHy0K8kRl-95" value="Fetches data" style="edgeLabel;html=1;align=center;verticalAlign=middle;resizable=0;points=[];" parent="3nKiiO2P07QAHy0K8kRl-91" vertex="1" connectable="0">
          <mxGeometry x="-0.5564" y="1" relative="1" as="geometry">
            <mxPoint as="offset" />
          </mxGeometry>
        </mxCell>
        <mxCell id="3nKiiO2P07QAHy0K8kRl-122" style="edgeStyle=orthogonalEdgeStyle;rounded=0;orthogonalLoop=1;jettySize=auto;html=1;endArrow=none;endFill=0;" parent="1" source="3nKiiO2P07QAHy0K8kRl-105" edge="1">
          <mxGeometry relative="1" as="geometry">
            <mxPoint x="-130" y="10" as="targetPoint" />
            <Array as="points">
              <mxPoint x="-340" y="-20" />
              <mxPoint x="-130" y="-20" />
            </Array>
          </mxGeometry>
        </mxCell>
        <mxCell id="3nKiiO2P07QAHy0K8kRl-105" value="Teacher" style="rounded=1;whiteSpace=wrap;html=1;fontStyle=1" parent="1" vertex="1">
          <mxGeometry x="-400" y="-110" width="120" height="60" as="geometry" />
        </mxCell>
        <mxCell id="3nKiiO2P07QAHy0K8kRl-116" style="edgeStyle=orthogonalEdgeStyle;rounded=0;orthogonalLoop=1;jettySize=auto;html=1;entryX=0.25;entryY=0;entryDx=0;entryDy=0;" parent="1" source="3nKiiO2P07QAHy0K8kRl-106" target="3nKiiO2P07QAHy0K8kRl-17" edge="1">
          <mxGeometry relative="1" as="geometry">
            <Array as="points">
              <mxPoint x="-130" y="50" />
              <mxPoint x="-100" y="50" />
            </Array>
          </mxGeometry>
        </mxCell>
        <mxCell id="3nKiiO2P07QAHy0K8kRl-118" style="edgeStyle=orthogonalEdgeStyle;rounded=0;orthogonalLoop=1;jettySize=auto;html=1;exitX=0.5;exitY=1;exitDx=0;exitDy=0;entryX=1;entryY=0.5;entryDx=0;entryDy=0;" parent="1" source="3nKiiO2P07QAHy0K8kRl-106" target="3nKiiO2P07QAHy0K8kRl-16" edge="1">
          <mxGeometry relative="1" as="geometry" />
        </mxCell>
        <mxCell id="3nKiiO2P07QAHy0K8kRl-119" style="edgeStyle=orthogonalEdgeStyle;rounded=0;orthogonalLoop=1;jettySize=auto;html=1;exitX=0.5;exitY=1;exitDx=0;exitDy=0;entryX=0;entryY=0.25;entryDx=0;entryDy=0;" parent="1" source="3nKiiO2P07QAHy0K8kRl-106" target="3nKiiO2P07QAHy0K8kRl-18" edge="1">
          <mxGeometry relative="1" as="geometry">
            <Array as="points">
              <mxPoint x="-130" y="50" />
              <mxPoint x="100" y="50" />
              <mxPoint x="100" y="65" />
            </Array>
          </mxGeometry>
        </mxCell>
        <mxCell id="3nKiiO2P07QAHy0K8kRl-120" style="edgeStyle=orthogonalEdgeStyle;rounded=0;orthogonalLoop=1;jettySize=auto;html=1;" parent="1" source="3nKiiO2P07QAHy0K8kRl-106" target="3nKiiO2P07QAHy0K8kRl-19" edge="1">
          <mxGeometry relative="1" as="geometry">
            <Array as="points">
              <mxPoint x="-130" y="30" />
              <mxPoint x="410" y="30" />
            </Array>
          </mxGeometry>
        </mxCell>
        <mxCell id="3nKiiO2P07QAHy0K8kRl-106" value="Student" style="rounded=1;whiteSpace=wrap;html=1;fontStyle=1" parent="1" vertex="1">
          <mxGeometry x="-190" y="-110" width="120" height="60" as="geometry" />
        </mxCell>
        <mxCell id="3nKiiO2P07QAHy0K8kRl-121" style="edgeStyle=orthogonalEdgeStyle;rounded=0;orthogonalLoop=1;jettySize=auto;html=1;endArrow=none;endFill=0;" parent="1" source="3nKiiO2P07QAHy0K8kRl-107" edge="1">
          <mxGeometry relative="1" as="geometry">
            <mxPoint x="-130" y="20" as="targetPoint" />
            <Array as="points">
              <mxPoint x="30" y="-10" />
              <mxPoint x="-130" y="-10" />
            </Array>
          </mxGeometry>
        </mxCell>
        <mxCell id="3nKiiO2P07QAHy0K8kRl-123" value="UI" style="edgeLabel;html=1;align=center;verticalAlign=middle;resizable=0;points=[];" parent="3nKiiO2P07QAHy0K8kRl-121" vertex="1" connectable="0">
          <mxGeometry x="0.9266" y="-2" relative="1" as="geometry">
            <mxPoint as="offset" />
          </mxGeometry>
        </mxCell>
        <mxCell id="3nKiiO2P07QAHy0K8kRl-107" value="Study department officer" style="rounded=1;whiteSpace=wrap;html=1;fontStyle=1" parent="1" vertex="1">
          <mxGeometry x="-30" y="-110" width="120" height="60" as="geometry" />
        </mxCell>
      </root>
    </mxGraphModel>
  </diagram>
</mxfile>
